<?xml version="1.0" encoding="utf-8"?>
<!-- Generator: Adobe Illustrator 19.2.0, SVG Export Plug-In . SVG Version: 6.00 Build 0)  -->
<svg version="1.1" id="Layer_1" xmlns="http://www.w3.org/2000/svg" xmlns:xlink="http://www.w3.org/1999/xlink" x="0px" y="0px"
	 viewBox="0 0 600 800" style="enable-background:new 0 0 600 800;" xml:space="preserve">
<style type="text/css">
	.st0{fill:#EB8F8F;}
	.st1{fill:#B3ACF9;}
	.st2{fill:#A2D076;}
	.st3{fill:#29ABE2;}
	.st4{fill:none;stroke:#FFFFFF;stroke-width:8;stroke-linecap:round;}
	.st5{fill:none;stroke:#FFFFFF;stroke-width:8;}
	.st6{fill:#9BF1CA;}
	.st7{fill:#7FCDEE;}
	.st8{fill:#FEE19C;}
	.st9{fill:#1B1464;}
	.st10{fill:none;}
	.st11{font-family:'FZLTZHK--GBK1-0';}
	.st12{font-size:18px;}
</style>
<path class="st0" d="M429.4,297H177c-18.2,0-33-14.8-33-33v-32.6c0-18.2,14.8-33,33-33h252.5c18.2,0,33,14.8,33,33V264
	C462.4,282.2,447.6,297,429.4,297z"/>
<path class="st1" d="M429.4,441H177c-18.2,0-33-14.8-33-33v-32.6c0-18.2,14.8-33,33-33h252.5c18.2,0,33,14.8,33,33V408
	C462.4,426.2,447.6,441,429.4,441z"/>
<path class="st2" d="M429.4,585H177c-18.2,0-33-14.8-33-33v-32.6c0-18.2,14.8-33,33-33h252.5c18.2,0,33,14.8,33,33V552
	C462.4,570.2,447.6,585,429.4,585z"/>
<g>
	<path class="st3" d="M363.9,86c0,32-25.9,58-58,58c-32,0-58-25.9-58-58s25.9-58,58-58C338,28.1,363.9,54,363.9,86L363.9,86
		L363.9,86z"/>
	<path class="st4" d="M345.6,86c0,21.3-17.7,38.5-39.6,38.5s-39.6-17.3-39.6-38.5c0-21.3,17.7-38.5,39.6-38.5
		C327.8,47.5,345.6,64.8,345.6,86L345.6,86z"/>
	<path class="st5" d="M272.9,66.1h67.9 M272,105.1h69.5 M268,85.9h76 M305.3,123V48.7 M305.3,123c-24.3-8.4-28.4-60.9,0-74.3
		 M305.3,123c28.2-12.4,28.2-60.9,0-74.3"/>
</g>
<circle class="st6" cx="117" cy="684" r="54"/>
<circle class="st7" cx="306" cy="720" r="54"/>
<circle class="st8" cx="495" cy="684" r="54"/>
<polygon class="st9" points="318,315 318,303 294,303 294,315 270,315 306,339 342,315 "/>
<polygon class="st9" points="318,165 318,153 294,153 294,165 270,165 306,189 342,165 "/>
<polygon class="st9" points="316,460 316,448 292,448 292,460 268,460 304,484 340,460 "/>
<polygon class="st9" points="317,622 317,610 293,610 293,622 269,622 305,646 341,622 "/>
<polygon class="st9" points="180.2,617.4 187.4,607.9 168.3,593.4 161,603 141.9,588.5 156.2,629.4 199.3,631.9 "/>
<polygon class="st9" points="466,600.6 459.7,590.4 439.3,603 445.6,613.2 425.2,625.9 468.5,627.3 486.4,587.9 "/>
<rect x="171" y="216" class="st10" width="270" height="63"/>
<text transform="matrix(1 0 0 1 171 230.0625)" class="st11 st12">使用爬虫工具从新闻站点（新华网</text>
<text transform="matrix(1 0 0 1 171 251.6626)" class="st11 st12">、百度新闻）爬取一段时间以来的</text>
<text transform="matrix(1 0 0 1 171 273.2627)" class="st11 st12">所有新闻并分词，然后按月保存。</text>
<rect x="171" y="360" class="st10" width="270" height="63"/>
<text transform="matrix(1 0 0 1 171 374.0625)" class="st11 st12">在云计算平台上对每个月份的文档</text>
<text transform="matrix(1 0 0 1 171 395.6626)" class="st11 st12">进行词频统计工作，并将关键词按</text>
<text transform="matrix(1 0 0 1 171 417.2627)" class="st11 st12">出现的次数进行排序存储。</text>
<rect x="171" y="504" class="st10" width="270" height="63"/>
<text transform="matrix(1 0 0 1 171 518.0625)" class="st11 st12">在本地使用统计工具分析关键词的</text>
<text transform="matrix(1 0 0 1 171 539.6626)" class="st11 st12">热度、种类以及变化趋势，得出较</text>
<text transform="matrix(1 0 0 1 171 561.2627)" class="st11 st12">为直观的统计结果。</text>
<rect x="81" y="675" class="st10" width="72" height="18"/>
<text transform="matrix(1 0 0 1 81 689.0625)" class="st11 st12">信息图谱</text>
<rect x="270" y="711" class="st10" width="72" height="18"/>
<text transform="matrix(1 0 0 1 270 725.0625)" class="st11 st12">热词统计</text>
<rect x="459" y="675" class="st10" width="72" height="18"/>
<text transform="matrix(1 0 0 1 459 689.0625)" class="st11 st12">热点趋势</text>
</svg>
